<?xml version="1.0" encoding="UTF-8" standalone="no"?>
<!-- Created with Inkscape (http://www.inkscape.org/) -->

<svg
   xmlns:dc="http://purl.org/dc/elements/1.1/"
   xmlns:cc="http://creativecommons.org/ns#"
   xmlns:rdf="http://www.w3.org/1999/02/22-rdf-syntax-ns#"
   xmlns:svg="http://www.w3.org/2000/svg"
   xmlns="http://www.w3.org/2000/svg"
   xmlns:sodipodi="http://sodipodi.sourceforge.net/DTD/sodipodi-0.dtd"
   xmlns:inkscape="http://www.inkscape.org/namespaces/inkscape"
   width="199mm"
   height="129mm"
   viewBox="0 0 199 129"
   version="1.1"
   id="svg8"
   inkscape:version="0.92.3 (2405546, 2018-03-11)"
   sodipodi:docname="aqp2.svg">
  <defs
     id="defs2" />
  <sodipodi:namedview
     id="base"
     pagecolor="#ffffff"
     bordercolor="#666666"
     borderopacity="1.0"
     inkscape:pageopacity="0.0"
     inkscape:pageshadow="2"
     inkscape:zoom="0.35"
     inkscape:cx="-170.72468"
     inkscape:cy="378.57007"
     inkscape:document-units="mm"
     inkscape:current-layer="layer1"
     showgrid="false"
     inkscape:window-width="1366"
     inkscape:window-height="705"
     inkscape:window-x="-8"
     inkscape:window-y="-8"
     inkscape:window-maximized="1" />
  <metadata
     id="metadata5">
    <rdf:RDF>
      <cc:Work
         rdf:about="">
        <dc:format>image/svg+xml</dc:format>
        <dc:type
           rdf:resource="http://purl.org/dc/dcmitype/StillImage" />
        <dc:title></dc:title>
      </cc:Work>
    </rdf:RDF>
  </metadata>
  <g
     inkscape:label="Capa 1"
     inkscape:groupmode="layer"
     id="layer1"
     transform="translate(0,-168)">
    <path
       style="fill:#008080;stroke-width:0.23071167"
       d="m 162.70921,294.53961 c -0.26105,-0.28847 -0.58127,-0.41367 -0.84438,-0.33016 -0.26582,0.0844 -0.47564,-4.6e-4 -0.56275,-0.22745 -0.0824,-0.21467 -0.41354,-0.36198 -0.81377,-0.36198 -0.37117,0 -1.04758,-0.15573 -1.50312,-0.34606 -0.45554,-0.19034 -1.03653,-0.34607 -1.2911,-0.34607 -0.25456,0 -0.99458,-0.30326 -1.64448,-0.67391 -1.49504,-0.85264 -5.87397,-2.24943 -7.48158,-2.38647 -1.39573,-0.11897 -2.08032,-0.65341 -3.93186,-3.06945 -1.42022,-1.85324 -2.80538,-3.06442 -3.71192,-3.24573 -0.40575,-0.0812 -0.89836,-0.39271 -1.0947,-0.69237 -0.33007,-0.50374 -0.5088,-0.54481 -2.37109,-0.54481 -2.40485,0 -2.8521,-0.28599 -2.62602,-1.67915 0.10694,-0.65898 0.0534,-0.88296 -0.23757,-0.99463 -0.20658,-0.0793 -0.3756,-0.33366 -0.3756,-0.56532 0,-0.4271 -0.19078,-0.524 -1.5867,-0.80592 -0.56209,-0.11352 -0.84547,-0.33292 -1.01702,-0.78742 -0.17486,-0.46325 -0.65316,-0.82356 -1.80663,-1.36096 -1.90599,-0.888 -3.288,-2.20407 -3.10021,-2.95229 0.17075,-0.68032 -0.23316,-1.69776 -0.67399,-1.69776 -0.19872,0 -0.35178,-0.20206 -0.35178,-0.46441 0,-0.34276 -0.34748,-0.61983 -1.32659,-1.05777 -0.72962,-0.32634 -1.48232,-0.69214 -1.67266,-0.81288 -0.19034,-0.12073 -0.61269,-0.33521 -0.93857,-0.4766 -0.32588,-0.14139 -0.75868,-0.54662 -0.96178,-0.9005 -0.26805,-0.46706 -0.61155,-0.68238 -1.25318,-0.78558 -0.48616,-0.0782 -1.19538,-0.2758 -1.57606,-0.43915 -0.68044,-0.29198 -2.23049,-0.64746 -6.11386,-1.40212 -1.07857,-0.2096 -2.53206,-0.49484 -3.22996,-0.63386 -0.6979,-0.13902 -2.04757,-0.62554 -2.99925,-1.08115 -1.41989,-0.67976 -1.81432,-0.9909 -2.19841,-1.73421 -0.36062,-0.6979 -0.69163,-0.98036 -1.44194,-1.23047 -0.53564,-0.17854 -0.97388,-0.4717 -0.97388,-0.65146 0,-0.73941 -0.83197,-1.17499 -2.549113,-1.33458 -0.93462,-0.0869 -1.75574,-0.23307 -1.82472,-0.32491 -0.38018,-0.50622 -1.66792,-0.94661 -2.18885,-0.74855 -0.57932,0.22025 -0.84085,0.0468 -1.12311,-0.74502 -0.0849,-0.23825 -0.37999,-0.40375 -0.71983,-0.40375 -0.33878,0 -0.67706,-0.189 -0.82157,-0.45903 -0.30296,-0.56608 -1.40246,-1.15595 -2.15467,-1.15595 -0.374096,0 -0.603096,-0.15971 -0.686542,-0.47881 -0.07569,-0.28943 -0.29165,-0.46143 -0.546009,-0.43486 -0.796022,0.0832 -0.997577,-0.0103 -0.997577,-0.46248 0,-0.24932 -0.203282,-0.5621 -0.451735,-0.69507 -0.364702,-0.19518 -0.499618,-0.1523 -0.700254,0.22259 -0.347157,0.64867 -1.983211,0.66496 -2.187347,0.0218 -0.112442,-0.35427 -0.265141,-0.40905 -0.765361,-0.27453 -1.066559,0.28683 -1.432382,0.0808 -1.432382,-0.80684 0,-1.80516 -1.040651,-3.08983 -2.86107,-3.53198 -0.621901,-0.15105 -1.421352,-0.42492 -1.776558,-0.6086 -0.355203,-0.18369 -1.269811,-0.33397 -2.032456,-0.33397 -0.990764,0 -1.47156,-0.10501 -1.684117,-0.3678 -1.183385,-1.46309 -1.530534,-1.62728 -4.896724,-2.31599 -1.819742,-0.37231 -1.836559,-0.37135 -2.810421,0.16064 -0.830266,0.45356 -1.070121,0.49401 -1.572299,0.26521 -0.391292,-0.17829 -0.592576,-0.45394 -0.592576,-0.81151 0,-0.72085 -0.821373,-1.44601 -1.988608,-1.75565 -0.522723,-0.13867 -1.197555,-0.44126 -1.499626,-0.67244 -0.302071,-0.23116 -1.172142,-0.76782 -1.93349,-1.19257 -0.761349,-0.42474 -1.883161,-1.18411 -2.492916,-1.68748 -0.749312,-0.61858 -1.459703,-0.97906 -2.191761,-1.11218 -1.067581,-0.19412 -2.121317,-1.02182 -2.121317,-1.66627 0,-0.15777 -0.343166,-0.41094 -0.762588,-0.56261 -1.326267,-0.47958 -1.737231,-1.03135 -1.613237,-2.16597 0.151086,-1.38254 -0.188413,-2.1205 -1.119402,-2.43322 -3.553965,-1.19377 -4.923862,-1.72705 -5.51166,-2.1456 -0.375799,-0.26759 -1.228265,-0.6611 -1.894371,-0.87447 -1.108382,-0.35504 -1.221514,-0.45643 -1.333843,-1.19543 -0.08592,-0.56525 -0.224339,-0.77904 -0.461423,-0.71263 -1.106489,0.30991 -3.599891,0.27087 -4.835052,-0.0757 -2.952258,-0.82837 -4.440653,-2.21982 -4.727058,-4.41919 -0.136741,-1.05004 -0.250117,-1.23343 -1.105409,-1.78801 -0.524175,-0.33988 -1.230526,-0.61797 -1.56967,-0.61797 -0.551627,0 -1.143488,-0.20989 -3.559177,-1.26216 -0.380674,-0.16582 -0.91614,-0.36891 -1.189923,-0.4513 -0.273783,-0.0824 -0.55202,-0.29113 -0.618305,-0.46386 -0.06628,-0.17273 -0.517111,-0.44146 -1.001838,-0.59716 -0.484726,-0.15571 -1.037051,-0.41806 -1.227388,-0.583 -0.190337,-0.16495 -1.072809,-0.5337 -1.961049,-0.81946 -0.88824,-0.28575 -1.819768,-0.65677 -2.070062,-0.82449 -0.250294,-0.16771 -0.999338,-0.30494 -1.664542,-0.30494 -1.335864,0 -1.525753,-0.17413 -1.803322,-1.6537 -0.171898,-0.9163 -0.538827,-1.12152 -3.4598293,-1.9351 -1.423561,-0.3965 -2.312701,-1.00825 -2.54941,-1.75406 -0.113355,-0.35715 -0.381807,-0.42493 -1.682968,-0.42493 -1.687195,0 -2.573616,-0.39902 -2.573616,-1.15852 0,-0.50527 0.644949,-0.91788 1.434715,-0.91788 0.708742,0 1.333825,-1.05391 1.333825,-2.24886 0,-0.71767 0.242547,-1.25412 1.153558,-2.55135 0.850551,-1.21114 1.153558,-1.85427 1.153558,-2.44841 0,-0.95207 0.639995,-2.0003 2.438316,-3.99362 1.080161,-1.19729 1.5140813,-1.50285 2.6013333,-1.8318 0.717707,-0.21715 1.460652,-0.51534 1.65099,-0.66264 0.190337,-0.1473 1.01483,-0.59644 1.832208,-0.99808 l 1.48614,-0.73026 0.820976,0.7821 c 1.08423,1.03288 2.730773,1.30312 3.706508,0.60834 0.841627,-0.59929 1.877282,-0.59875 2.251939,0.001 0.237377,0.3801 0.538026,0.46142 1.705894,0.46142 1.077084,0 1.72797,0.15182 2.708908,0.63185 0.989704,0.48432 1.748529,0.65939 3.249982,0.74981 1.726692,0.10399 1.969101,0.17264 2.045665,0.57939 0.04777,0.25378 0.273266,0.7242 0.501096,1.04538 0.25233,0.35572 0.343758,0.71642 0.233919,0.92285 -0.09918,0.18639 -0.251755,0.9019 -0.339061,1.59003 -0.18638,1.469 -0.47414,2.09417 -0.963913,2.09417 -0.234814,0 -0.329175,0.17408 -0.280273,0.51704 0.05978,0.41927 0.270036,0.54642 1.111926,0.67241 1.520634,0.22758 4.276547,1.41391 4.228209,1.82011 -0.02199,0.18467 -0.173399,0.93375 -0.336493,1.66462 -0.284765,1.27612 -0.276314,1.34302 0.212993,1.68574 0.315006,0.22064 0.509524,0.59851 0.509524,0.9898 0,1.04521 0.349159,1.18662 2.930038,1.18662 2.486239,0 2.474297,0.005 2.385986,-1.09108 -0.08167,-1.01411 0.720588,-1.90355 2.463931,-2.7317 0.916352,-0.4353 1.864367,-0.79146 2.106699,-0.79146 1.387627,0 2.784845,4.59892 1.720563,5.6632 -0.214385,0.21439 -0.687168,0.49346 -1.050627,0.62016 -0.556887,0.19413 -0.641067,0.32594 -0.535156,0.83793 0.06912,0.33415 -0.01098,1.2538 -0.177987,2.04366 -0.308079,1.45697 -0.195773,1.90921 0.474119,1.90921 0.167573,0 0.629688,-0.46109 1.026921,-1.02465 0.397232,-0.56356 0.992925,-1.13677 1.323761,-1.27381 0.681036,-0.28209 1.699051,-1.76778 2.145413,-3.13101 0.226557,-0.69192 0.470442,-0.97136 1.000008,-1.14581 0.385206,-0.12689 1.179721,-0.62458 1.76559,-1.10599 0.976764,-0.80259 1.073149,-0.975 1.160773,-2.0764 0.05256,-0.66062 0.0034,-1.38891 -0.109131,-1.61841 -0.112578,-0.2295 -0.139998,-0.7118 -0.06094,-1.07177 0.118699,-0.54043 0.320127,-0.69891 1.155727,-0.90932 1.939722,-0.48843 2.535773,-0.36182 3.416653,0.72571 0.436813,0.53929 0.977352,1.34389 1.201196,1.78801 0.477822,0.94803 0.728423,1.14525 1.461279,1.15003 0.301014,0.002 0.828698,0.31056 1.187104,0.69423 0.509063,0.54496 0.673396,0.61725 0.778785,0.34261 0.209703,-0.54648 1.30399,-0.87437 1.944339,-0.58261 0.440929,0.2009 0.654181,0.16008 1.133533,-0.21698 0.324738,-0.25545 0.770069,-0.46444 0.989628,-0.46444 0.219559,0 0.663169,-0.20764 0.985801,-0.46142 0.390403,-0.3071 0.935946,-0.46143 1.631076,-0.46143 1.258472,0 2.066025,-0.28405 2.969988,-1.04469 0.944227,-0.79451 1.502046,-0.71547 2.488043,0.35256 0.801947,0.86866 0.929025,0.92284 2.164438,0.92284 0.825207,0 1.525786,0.13977 1.887046,0.37648 0.532782,0.34909 0.605777,0.34824 1.003605,-0.0118 0.585006,-0.52942 0.756473,-1.57664 0.448623,-2.73992 -0.227648,-0.86021 -0.198518,-1.06807 0.257179,-1.83525 0.483588,-0.81413 0.58131,-0.86517 1.656641,-0.86517 0.76046,0 1.441341,0.17185 2.035343,0.51372 0.848361,0.48825 0.914421,0.49397 1.332789,0.11535 0.242102,-0.2191 0.668176,-0.39836 0.946829,-0.39836 0.62164,0 0.95665,-0.77626 0.95665,-2.21666 0,-0.91059 0.12678,-1.16861 1.06928,-2.17622 0.6897,-0.73734 1.37632,-1.22583 1.93417,-1.37605 1.00253,-0.26995 1.28065,-0.5467 1.50717,-1.49977 0.0903,-0.37997 0.43607,-1.05422 0.76836,-1.49834 0.52626,-0.70337 0.60416,-1.0306 0.60416,-2.53783 0,-1.21285 0.12075,-1.95115 0.40375,-2.46869 0.60189,-1.10072 0.63696,-1.02059 -1.34376,-3.07088 -0.75795,-0.78457 -0.71138,-1.09122 0.36324,-2.39165 0.59861,-0.72441 0.92284,-1.34734 0.92284,-1.77302 0,-0.45234 0.19034,-0.78503 0.6126,-1.07076 0.33694,-0.22798 1.03772,-0.85549 1.55731,-1.39446 l 0.9447,-0.97996 1.521083,0.18454 c 0.83659,0.10149 1.65087,0.14127 1.8095,0.0884 0.15864,-0.0529 0.57987,-0.74571 0.93608,-1.53963 0.35621,-0.79392 0.97767,-1.89811 1.38103,-2.45376 0.69726,-0.96052 0.79213,-1.01134 1.92636,-1.03197 0.65615,-0.0119 1.57424,-0.10207 2.0402,-0.20031 0.8081,-0.17036 0.85071,-0.14851 0.92285,0.47337 l 0.0756,0.65198 2.21721,-0.0658 c 2.18869,-0.0649 2.22319,-0.0575 2.68227,0.57268 l 0.46506,0.63843 0.36486,-0.70555 c 0.36008,-0.69633 0.39524,-0.7077 2.69284,-0.87059 1.9435,-0.13779 2.42144,-0.10383 2.89371,0.20561 0.75957,0.49769 0.71874,1.23308 -0.1338,2.40998 -0.65119,0.89895 -0.67509,1.00048 -0.34607,1.47022 0.19439,0.27753 0.35343,0.84487 0.35343,1.26075 0,0.7006 0.0556,0.75616 0.75616,0.75616 1.07267,0 1.85531,0.59804 1.68269,1.28582 -0.11849,0.47207 -0.0542,0.54007 0.50062,0.5295 0.35011,-0.007 1.26525,0.0619 2.03365,0.15245 1.34128,0.15801 1.41323,0.13993 1.80146,-0.45258 0.50842,-0.77595 1.21744,-1.04533 2.09153,-0.79464 0.49253,0.14125 0.78261,0.10228 1.05179,-0.14132 0.81575,-0.73825 4.78363,-1.53536 5.45109,-1.09508 0.14156,0.0934 0.24538,0.63389 0.23072,1.20114 -0.0245,0.94825 0.0341,1.06045 0.72791,1.39233 0.42129,0.20154 0.93081,0.71408 1.15356,1.1604 0.54061,1.08324 1.35473,1.12863 1.24886,0.0696 -0.0517,-0.51673 0.0494,-0.79925 0.34606,-0.96772 0.34279,-0.19464 0.3704,-0.31751 0.15175,-0.67523 -0.35306,-0.57764 -0.23256,-5.55248 0.15267,-6.30283 0.15613,-0.30409 0.70863,-0.99413 1.2278,-1.53341 1.17281,-1.21827 1.86106,-1.28519 2.37271,-0.23072 0.2001,0.4124 0.69042,0.95885 1.08958,1.21433 0.72497,0.464 1.07041,1.19875 0.69059,1.46889 -0.11059,0.0786 -0.3873,0.43546 -0.61492,0.7929 -0.32736,0.51408 -0.35603,0.71956 -0.13717,0.98327 0.15217,0.18336 0.44462,0.66896 0.64989,1.07911 0.29434,0.58813 0.55938,0.77546 1.25405,0.88633 0.48446,0.0773 1.04494,0.3047 1.24551,0.50527 0.32412,0.32412 0.69094,1.6891 0.82563,3.0723 0.0662,0.6796 1.35938,1.73545 1.79105,1.46232 0.56505,-0.35751 0.76434,-0.2581 2.14816,1.07158 l 1.34158,1.2891 -0.48267,0.51378 c -0.57775,0.61499 -0.59499,0.86654 -0.12211,1.78099 0.4452,0.86094 0.13488,1.35624 -0.84971,1.35624 -0.62347,0 -2.97153,1.44108 -2.97153,1.82372 0,0.30028 2.15201,0.7182 4.71272,0.91522 2.49207,0.19173 2.52837,0.20292 3.16708,0.97694 0.35537,0.43065 0.92058,1.05782 1.25604,1.3937 l 0.60992,0.61071 1.01027,-1.13751 c 0.60016,-0.67574 1.01026,-1.36362 1.01026,-1.69452 0,-0.50771 0.10513,-0.5632 1.18748,-0.62676 1.67263,-0.0982 1.97713,-0.62816 0.88515,-1.54041 l -0.80371,-0.67143 0.46142,-0.5181 c 0.25378,-0.28495 0.81078,-0.66587 1.23777,-0.8465 l 0.77635,-0.32841 1.7794,1.68685 c 2.09989,1.99067 4.07481,3.61368 4.80246,3.9467 0.72805,0.3332 1.419,-0.087 2.21696,-1.34833 0.79609,-1.25834 1.23893,-1.29639 2.55327,-0.21939 0.54199,0.44412 1.09655,0.80749 1.23236,0.80749 0.13581,0 0.57564,0.27659 0.97739,0.61464 0.66946,0.56332 0.71725,0.69335 0.57228,1.5573 -0.42611,2.53942 0.13642,6.12242 1.09823,6.99513 0.32948,0.29896 0.9802,0.43818 2.44366,0.52282 l 1.99459,0.11536 0.39375,0.80749 c 0.21657,0.44412 0.39874,1.15448 0.40484,1.57859 0.006,0.4241 0.21872,1.03507 0.4725,1.3577 0.25378,0.32264 0.46142,0.73792 0.46142,0.92285 0,0.18493 -0.20764,0.60022 -0.46142,0.92285 -0.75932,0.96531 -0.56737,1.93064 0.48794,2.45396 0.61786,0.30639 0.86109,1.36363 0.43252,1.88004 -0.14655,0.17657 -0.20547,0.51315 -0.13095,0.74796 0.0745,0.23481 -0.0137,0.62912 -0.19594,0.87624 -0.29763,0.40349 -0.27329,0.5104 0.2386,1.04809 0.50468,0.5301 0.52933,0.63255 0.215,0.89342 -0.19527,0.16205 -0.35503,0.38021 -0.35503,0.48478 0,0.16778 1.04021,0.89631 3.05693,2.14098 0.59534,0.36742 0.63445,0.49209 0.63445,2.02193 0,1.40454 0.0708,1.68765 0.51081,2.04398 0.44735,0.36225 0.47673,0.48839 0.23655,1.01554 -0.15084,0.33105 -0.68822,0.88831 -1.19418,1.23834 -0.90857,0.62856 -1.14329,1.05875 -0.72033,1.32016 0.27058,0.16722 1.76871,3.25856 1.97231,4.06978 0.0936,0.3729 0.42717,0.72087 0.88382,0.92197 0.60843,0.26794 0.77283,0.50915 0.96421,1.41468 0.1497,0.70834 0.42106,1.22491 0.77281,1.47114 0.4359,0.30513 0.51488,0.51558 0.40315,1.07423 -0.0958,0.47911 -0.031,0.77439 0.20868,0.95133 0.1912,0.14112 0.3763,0.69231 0.41133,1.22487 0.035,0.53256 0.13842,1.04301 0.22974,1.13433 0.39974,0.39974 0.082,0.76182 -1.08396,1.23503 -0.68751,0.27904 -1.55466,0.73233 -1.92701,1.00732 -0.72999,0.53912 -0.72438,0.63882 0.13442,2.38565 0.29349,0.59699 0.30575,0.7974 0.0664,1.08578 -0.16983,0.20463 -0.21406,0.47943 -0.10495,0.65215 0.10371,0.16417 0.35282,0.94539 0.55357,1.73605 0.34622,1.36351 0.34256,1.47302 -0.071,2.12617 -0.52805,0.83399 -1.75199,1.62729 -2.51068,1.62729 -0.64635,0 -1.58141,0.59111 -1.58141,0.9997 0,0.18917 -0.30249,0.25256 -0.92285,0.1934 -1.05577,-0.10069 -1.2387,0.29523 -0.46142,0.99866 0.61389,0.55556 0.58173,1.09053 -0.11536,1.91897 -0.70075,0.83281 -0.70519,0.91385 -0.0862,1.57277 0.58203,0.61954 0.44569,1.15644 -0.37267,1.46758 -0.32231,0.12254 -0.87505,0.43649 -1.22831,0.69767 l -0.64229,0.47486 -1.08399,-0.5281 c -0.5962,-0.29045 -1.08433,-0.64516 -1.08472,-0.78824 -4.6e-4,-0.14307 -0.16488,-0.39638 -0.36553,-0.56289 -0.30178,-0.25046 -0.45123,-0.2476 -0.86516,0.0166 -0.27521,0.17563 -0.91565,0.37859 -1.42322,0.45102 l -0.92284,0.13169 0.0732,0.97705 c 0.0681,0.90814 0.0325,0.97705 -0.50408,0.97705 -1.50437,0 -2.89145,1.17025 -2.90619,2.4519 -0.005,0.39686 -0.16402,0.85081 -0.35436,1.00877 -0.19034,0.15797 -0.34607,0.58596 -0.34607,0.9511 0,0.51169 -0.10656,0.66389 -0.46481,0.66389 -0.25565,0 -0.85058,0.35353 -1.32207,0.78562 l -0.85727,0.78562 0.41397,0.8681 c 0.4021,0.84321 0.40106,0.88557 -0.0363,1.47719 -0.39585,0.53541 -0.41257,0.67724 -0.13828,1.17249 0.44842,0.80964 0.41614,0.89636 -0.47168,1.26732 -1.18278,0.4942 -2.21508,0.43866 -2.36304,-0.12713 -0.12839,-0.49098 -0.92454,-0.60134 -2.32192,-0.32187 -0.58577,0.11716 -0.73643,0.29305 -0.93866,1.09588 -0.47106,1.86999 -0.48773,2.15062 -0.15396,2.59168 0.44402,0.58674 0.43381,1.17784 -0.0248,1.43448 -0.34164,0.19119 -0.33937,0.26051 0.0268,0.81936 0.23066,0.35204 0.34449,0.82283 0.26886,1.11202 -0.15231,0.58245 0.63556,2.6075 1.30711,3.35967 0.4445,0.49786 0.44623,0.53335 0.0474,0.97408 -0.40258,0.44485 -0.39308,0.46865 0.34624,0.86759 1.00306,0.54124 2.52964,1.89177 2.52964,2.2379 0,0.15092 0.25955,0.6262 0.57678,1.05618 0.96718,1.31094 0.9147,1.40148 -2.20615,3.80674 -0.65858,0.50757 -1.31132,1.1824 -1.45053,1.49963 -0.46538,1.06043 -1.63779,2.34951 -2.89896,3.18744 -0.72056,0.47874 -1.35223,1.10277 -1.49253,1.47448 -0.28821,0.76355 -0.6106,0.81253 -1.18325,0.17976 z"
       id="path3900"
       inkscape:connector-curvature="0" />
    <path
       style="fill:#00ffff;stroke-width:0.23071167"
       d="m 165.56317,292.25038 c 0.80697,-0.41376 1.64889,-1.37605 2.57288,-2.94071 0.38439,-0.65092 1.49862,-1.62482 3.32949,-2.91016 0.70998,-0.49843 0.74881,-1.05226 0.12902,-1.8402 -0.25378,-0.32263 -0.46142,-0.69203 -0.46142,-0.8209 0,-0.48838 -1.25851,-1.70094 -2.24826,-2.16618 -0.98917,-0.46496 -1.02486,-0.51674 -0.89743,-1.30201 0.0834,-0.51387 0.0212,-0.95034 -0.16739,-1.17445 -0.45518,-0.54094 -1.07044,-2.35857 -1.07044,-3.16233 0,-0.39262 -0.15573,-0.8431 -0.34607,-1.00106 -0.19034,-0.15797 -0.34607,-0.43349 -0.34607,-0.61227 0,-0.17879 0.15573,-0.38482 0.34607,-0.45786 0.40375,-0.15493 0.46275,-0.90694 0.0893,-1.13777 -0.25508,-0.15764 -0.17385,-1.79438 0.15663,-3.15615 0.14882,-0.61319 0.1226,-0.63446 -0.78215,-0.63446 -0.51487,0 -1.00029,0.10382 -1.07871,0.23072 -0.0784,0.12689 -0.68973,0.23071 -1.35845,0.23071 h -1.21586 l -0.5521,-1.17875 c -0.63042,-1.34599 -1.23621,-1.69371 -2.30288,-1.32187 -0.62782,0.21886 -0.7596,0.18905 -1.05991,-0.23971 -0.40807,-0.58259 -0.66887,-0.60396 -1.57899,-0.12939 -0.40618,0.2118 -1.61059,0.41377 -2.95639,0.49575 l -2.27097,0.13836 -1.11496,1.00245 c -0.99266,0.89248 -1.23803,1.00245 -2.23681,1.00245 -1.2945,0 -1.69701,-0.41281 -1.91211,-1.96105 -0.11535,-0.83022 -0.20001,-0.92985 -0.84345,-0.99257 -0.57443,-0.056 -0.9886,0.15871 -2.10392,1.09065 -0.76379,0.6382 -1.50855,1.44971 -1.65503,1.80335 -0.25459,0.61463 -1.85305,1.67664 -2.52144,1.67524 -0.16774,-4.6e-4 -0.7701,-0.27322 -1.33858,-0.60637 l -1.0336,-0.60573 -0.55355,0.52003 c -0.46193,0.43396 -0.86014,0.53178 -2.40597,0.59098 -1.82328,0.0698 -3.01332,0.42198 -3.18225,0.94168 -0.0948,0.29151 1.83149,1.68222 2.63608,1.9032 l 0.50779,0.13946 -0.54747,1.34568 c -0.3011,0.74012 -0.73724,1.48673 -0.9692,1.65914 -0.62794,0.46673 -0.1266,1.10052 1.05542,1.33427 0.70261,0.13895 1.02488,0.33906 1.17286,0.72828 0.11223,0.29517 0.34053,0.5822 0.50735,0.63785 0.20112,0.0671 0.28978,0.46429 0.26319,1.17903 -0.05,1.34323 0.30686,1.5809 2.30316,1.53396 2.27296,-0.0534 2.42622,-0.0263 2.57961,0.45701 0.0829,0.26112 0.47561,0.54576 0.92375,0.6695 1.12241,0.30991 2.51548,1.51429 3.93852,3.40507 1.74557,2.31932 2.34034,2.76489 3.94842,2.95791 1.74842,0.20988 6.01307,1.55261 7.27505,2.29057 1.06421,0.62232 2.46945,1.04822 4.0628,1.23136 0.56216,0.0646 1.05216,0.25788 1.1232,0.44301 0.0716,0.18668 0.29663,0.27423 0.52141,0.20289 0.23015,-0.073 0.57109,0.0687 0.81581,0.33907 0.41762,0.46146 0.42576,0.45834 1.21706,-0.46611 0.43815,-0.51188 1.1748,-1.12459 1.63701,-1.36157 z"
       id="islay"
       inkscape:label="#path3898"
       inkscape:connector-curvature="0" />
    <path
       style="fill:#00ffff;stroke-width:0.23071167"
       d="m 132.74152,275.07044 0.54501,-1.17627 -0.51415,-0.13946 c -0.752,-0.20397 -2.70592,-1.57736 -2.70592,-1.90195 0,-0.50308 0.70955,-1.3039 1.15529,-1.3039 0.24034,0 0.94707,-0.1094 1.57051,-0.2431 0.85529,-0.18343 1.19786,-0.3843 1.39563,-0.81835 0.14415,-0.31639 0.2621,-0.60949 0.2621,-0.65134 0,-0.0419 -0.50713,-0.29424 -1.12694,-0.56088 -0.96495,-0.41511 -1.14839,-0.59916 -1.2762,-1.28041 -0.18386,-0.98011 -1.8723,-2.21372 -3.02989,-2.21372 -0.90657,0 -1.19264,-0.31992 -1.39006,-1.55454 -0.13137,-0.8215 -0.0744,-1.02936 0.40762,-1.48818 0.30816,-0.29332 0.68988,-0.85503 0.84825,-1.24825 0.16737,-0.41559 0.65551,-0.92153 1.1658,-1.20833 0.72036,-0.40486 0.85853,-0.59454 0.77009,-1.05719 -0.072,-0.37648 0.0969,-0.83218 0.50837,-1.37161 0.56708,-0.74348 0.58916,-0.8504 0.27722,-1.34248 -0.18641,-0.29407 -0.40929,-0.87208 -0.49527,-1.28448 -0.15295,-0.73359 -0.18463,-0.7506 -1.46459,-0.78615 -0.71954,-0.02 -1.46399,-0.008 -1.65433,0.0267 -0.19034,0.0346 -1.04701,0.0949 -1.90372,0.13392 -0.85672,0.039 -1.92738,0.19294 -2.37926,0.34208 -0.68998,0.22771 -0.88688,0.21208 -1.22905,-0.0976 -0.2241,-0.2028 -0.57669,-0.36873 -0.78355,-0.36873 -0.20685,0 -0.74347,-0.18168 -1.19247,-0.40374 -0.6093,-0.30133 -0.87732,-0.62322 -1.05658,-1.26892 -0.30274,-1.09045 -0.78551,-1.11025 -1.40654,-0.0577 -0.61046,1.03465 -1.69561,1.1519 -2.04937,0.22143 -0.18997,-0.49966 -0.29136,-0.54938 -0.68774,-0.33725 -0.39023,0.20885 -0.44144,0.39566 -0.31876,1.16285 0.13911,0.86993 -0.13651,1.25461 -0.48959,0.68331 -0.27824,-0.4502 -0.57678,-0.22114 -0.57678,0.44255 0,1.11932 -0.21353,1.40314 -1.05561,1.40314 -0.66656,0 -0.90298,-0.17018 -1.68264,-1.21123 -0.49891,-0.66618 -1.37931,-1.5227 -1.95645,-1.90337 -1.0324,-0.68095 -1.31918,-1.044 -1.73423,-2.19544 -0.13154,-0.36493 -0.62588,-0.78372 -1.33135,-1.1279 -1.52421,-0.7436 -2.39103,-1.58689 -2.39103,-2.32612 0,-0.33156 0.0905,-0.70146 0.20104,-0.82201 0.11057,-0.12054 0.15109,-0.85299 0.09,-1.62765 -0.0945,-1.19928 -0.22724,-1.53537 -0.89362,-2.26277 -0.73848,-0.80609 -0.77462,-0.92243 -0.64066,-2.06223 0.13518,-1.15022 0.0906,-1.28739 -0.93358,-2.87057 l -1.07554,-1.66262 -1.200063,-0.0488 c -0.66003,-0.0268 -1.66725,-0.0528 -2.23826,-0.0577 -0.57101,-0.005 -1.26498,-0.13862 -1.54214,-0.29724 -0.27716,-0.15861 -0.84817,-0.29178 -1.26891,-0.29592 -0.74015,-0.007 -3.04212,-0.69307 -3.34579,-0.99675 -0.29649,-0.29649 -1.17594,-0.13965 -1.750309,0.31215 -0.663884,0.52221 -1.328336,0.59283 -1.736596,0.18457 -0.414515,-0.41452 -0.339022,-0.78585 0.299925,-1.47529 0.671945,-0.72504 0.696945,-0.86017 0.230712,-1.24711 -0.19961,-0.16566 -0.346068,-0.66887 -0.346068,-1.18905 0,-0.58332 -0.120577,-0.94811 -0.341398,-1.03284 -0.187769,-0.0721 -0.559609,-0.48408 -0.826307,-0.91561 -0.266701,-0.43153 -0.618963,-0.7846 -0.782807,-0.7846 -0.351564,0 -0.634781,2.23395 -0.351471,2.7723 0.101252,0.1924 0.215648,0.86723 0.254214,1.49962 0.06167,1.0112 0.0155,1.15051 -0.383004,1.15568 -0.484218,0.006 -0.494284,0.1308 -0.130062,1.60911 0.396797,1.61052 0.743113,3.4202 0.904662,4.72731 0.126735,1.02542 0.244421,1.27977 0.617971,1.33558 0.253782,0.0379 0.71417,0.12359 1.023081,0.19038 l 0.561661,0.12145 -0.595492,0.50403 c -0.47292,0.40028 -0.620603,0.77603 -0.717497,1.82553 -0.0671,0.72683 -0.01843,1.69666 0.108176,2.15518 0.273058,0.98893 -0.156268,1.64349 -1.153725,1.75899 -0.582641,0.0675 -0.610474,0.13231 -0.610474,1.42225 0,1.34065 -0.0065,1.35368 -0.807491,1.61498 -0.550481,0.17958 -0.917637,0.50049 -1.153558,1.00824 -0.194451,0.41851 -0.522955,0.74701 -0.749813,0.74982 -0.22206,0.003 -0.403746,0.12059 -0.403746,0.26189 0,0.26506 0.915584,0.18967 1.686424,-0.13888 0.314642,-0.13411 0.449168,-0.0569 0.546009,0.31344 0.154265,0.58992 1.242973,0.68355 1.689665,0.14532 0.564487,-0.68016 1.614982,-0.25747 1.614982,0.64983 0,0.33538 0.116826,0.41164 0.483675,0.3157 0.624179,-0.16322 1.131307,0.0356 1.131307,0.44342 0,0.17676 0.188144,0.32139 0.418084,0.32139 0.6009,0 2.27277,0.84905 2.41821,1.22808 0.0678,0.17671 0.44091,0.38481 0.82911,0.46245 0.49615,0.0992 0.748,0.30928 0.84785,0.7071 0.12277,0.48915 0.24229,0.54968 0.88076,0.44607 0.52925,-0.0859 1.04303,0.05 1.81188,0.47926 0.75684,0.42253 1.4139,0.59913 2.22914,0.59913 1.476763,0 2.249933,0.35762 2.533823,1.17198 0.17143,0.49178 0.45414,0.70852 1.17862,0.9036 0.80538,0.21687 1.01748,0.40687 1.36861,1.22601 0.41393,0.96566 0.58558,1.09676 2.55657,1.95262 1.04457,0.45358 6.17705,1.67388 7.03671,1.67304 0.65289,-6.9e-4 3.86234,0.807 4.44401,1.1183 0.26728,0.14304 0.75647,0.26008 1.08709,0.26008 0.86108,0 2.34756,0.8193 2.49257,1.37383 0.0755,0.28859 0.31381,0.47186 0.61366,0.47186 0.26964,0 0.55002,0.15573 0.62306,0.34607 0.073,0.19033 0.25147,0.34959 0.3965,0.35389 0.14504,0.004 0.67899,0.20842 1.18656,0.4536 0.50756,0.24517 1.05802,0.44929 1.22323,0.45359 0.16522,0.004 0.40897,0.31929 0.54167,0.69997 0.13271,0.38067 0.36152,0.69213 0.50846,0.69213 0.39547,0 0.89926,1.29946 0.72124,1.86033 -0.1078,0.33967 0.007,0.65816 0.38268,1.05759 1.02795,1.0942 3.65466,2.43034 4.3207,2.19783 0.17336,-0.0605 0.56046,-0.63936 0.86022,-1.2863 z"
       id="camana"
       inkscape:label="#path3896"
       inkscape:connector-curvature="0" />
    <path
       style="fill:#00ffff;stroke-width:0.23071167"
       d="m 140.10846,269.95634 c 0.55609,-0.32589 1.07347,-0.78915 1.14974,-1.02947 0.0763,-0.24033 0.82278,-1.06381 1.6589,-1.82996 1.21369,-1.11212 1.67299,-1.393 2.27787,-1.393 0.90134,0 1.48273,0.5085 1.48273,1.29685 0,0.85586 0.63777,1.93311 1.14447,1.93311 0.79185,0 1.72387,-0.47378 2.59294,-1.31809 0.65888,-0.6401 1.02716,-0.82145 1.61498,-0.79526 1.07527,0.0479 3.80182,-0.41699 4.73692,-0.8077 0.85427,-0.35694 1.5614,-0.25076 1.75897,0.2641 0.0887,0.23107 0.3574,0.28696 0.93164,0.19378 1.31619,-0.21359 1.866,0.0462 2.3447,1.10775 0.62148,1.37819 0.88733,1.57827 1.89207,1.42398 0.4749,-0.0729 0.98485,-0.22775 1.13321,-0.34406 0.14836,-0.11631 0.77129,-0.18928 1.38427,-0.16216 0.61299,0.0271 1.75319,-0.0313 2.53378,-0.12982 1.30552,-0.16476 1.44022,-0.13995 1.68078,0.30954 0.30524,0.57034 1.52114,0.67214 2.18964,0.18333 0.36623,-0.2678 0.37874,-0.3677 0.10177,-0.81279 -0.2732,-0.43902 -0.2616,-0.60215 0.086,-1.20957 0.36713,-0.64155 0.37108,-0.76146 0.0458,-1.3905 -0.19579,-0.37862 -0.29308,-0.8866 -0.21619,-1.12884 0.13977,-0.44039 1.73612,-1.83945 2.10894,-1.8483 0.31627,-0.008 1.2454,-2.23946 1.09519,-2.63088 -0.28284,-0.73709 1.9247,-2.44009 3.16301,-2.44009 0.37013,0 0.39352,-0.0763 0.1722,-0.56207 -0.14085,-0.30913 -0.19977,-0.70883 -0.13094,-0.88821 0.12038,-0.3137 1.64053,-0.76027 3.45386,-1.01465 0.76189,-0.10688 0.86517,-0.0639 0.86517,0.3596 0,0.32768 0.28987,0.62885 0.9095,0.94496 0.83479,0.42588 1.62833,0.43423 1.62833,0.0171 0,-0.0941 0.43144,-0.34051 0.95875,-0.54764 l 0.95877,-0.37661 -0.58905,-0.58905 c -0.65095,-0.65095 -0.62668,-1.22469 0.0788,-1.86314 0.57157,-0.51727 0.56007,-1.39893 -0.023,-1.76307 -0.96311,-0.60148 -0.39959,-1.53706 0.86517,-1.43638 0.51127,0.0407 0.74981,-0.0412 0.74981,-0.25747 0,-0.40944 1.18415,-1.02115 1.97674,-1.02115 0.40722,0 0.91836,-0.30298 1.51108,-0.8957 0.886,-0.88599 1.16561,-1.64207 0.60732,-1.64218 -0.1856,-4e-5 -0.29647,-0.3781 -0.31105,-1.06062 -0.0132,-0.61778 -0.1522,-1.14063 -0.33295,-1.25234 -0.24684,-0.15255 -0.25501,-0.3131 -0.04,-0.78507 0.27135,-0.59554 0.20897,-0.90207 -0.48766,-2.39634 -0.17594,-0.37738 -0.1772,-0.64819 -0.004,-0.92284 0.26509,-0.42108 2.16812,-1.48622 3.08259,-1.72536 0.42639,-0.1115 0.5002,-0.21319 0.30002,-0.41337 -0.15411,-0.15411 -0.21175,-0.59665 -0.13739,-1.05486 0.0978,-0.6029 0.0135,-0.91132 -0.35685,-1.30558 -0.32021,-0.34084 -0.4399,-0.68847 -0.35234,-1.0233 0.0906,-0.34636 -0.0583,-0.73393 -0.46956,-1.22273 -0.33119,-0.3936 -0.60216,-0.8634 -0.60216,-1.044 0,-0.49299 -0.59811,-0.39714 -1.58112,0.25338 -1.12558,0.74488 -1.72153,0.90879 -5.91701,1.62747 -1.90337,0.32604 -3.94711,0.79291 -4.54165,1.03748 -0.8328,0.3426 -1.63918,0.44469 -3.51242,0.44469 h -2.43146 l -0.36319,-0.70234 c -0.41962,-0.81145 -1.59565,-1.60267 -2.384,-1.60392 -0.29897,-4.6e-4 -0.9329,-0.30921 -1.40874,-0.68608 -1.37265,-1.08716 -1.8811,-1.18948 -5.29233,-1.0651 -3.37324,0.12301 -3.47567,0.16284 -3.9799,1.54779 -0.3853,1.0583 -1.63565,1.43202 -4.03017,1.2046 l -2.04866,-0.19458 -0.0709,-0.97944 c -0.0587,-0.81105 -0.16553,-1.0032 -0.62134,-1.1176 -0.81625,-0.20487 -1.0381,0.0501 -1.0381,1.19297 0,0.88817 -0.1348,1.17827 -0.98053,2.11014 -1.66663,1.83642 -2.04694,2.08915 -3.39803,2.2582 -1.53979,0.19265 -2.31208,0.88628 -2.31208,2.07658 0,0.58123 -0.13596,0.85963 -0.5191,1.06293 -0.28551,0.15149 -0.65477,0.46661 -0.82057,0.70025 -0.23103,0.32554 -0.6013,0.42481 -1.58453,0.42481 -1.09663,0 -1.39759,-0.10056 -2.07135,-0.69213 -0.62414,-0.54801 -1.00282,-0.69214 -1.81847,-0.69214 -1.15114,0 -1.1837,-0.0684 -0.65802,-1.3822 0.38931,-0.97299 0.19094,-1.61705 -0.49806,-1.61705 -0.16507,0 -0.62237,-0.27115 -1.01622,-0.60256 l -0.71611,-0.60257 -1.38087,0.51641 c -0.75948,0.28403 -1.83571,0.50728 -2.39162,0.49612 -1.13568,-0.0228 -1.28167,0.19852 -1.28748,1.95161 -0.002,0.52333 -0.15888,1.3929 -0.34921,1.93238 -0.19034,0.53947 -0.34607,1.43158 -0.34607,1.98248 0,0.9512 -0.0939,1.09198 -1.86674,2.79721 -1.02671,0.98757 -2.27181,2.05514 -2.76688,2.37237 -0.65862,0.42202 -0.90059,0.73454 -0.9018,1.16476 -0.001,0.37061 -0.34283,0.94304 -0.92451,1.54839 -0.97405,1.01369 -1.09825,1.49439 -0.64384,2.49172 0.26549,0.58268 0.33534,0.60414 1.44195,0.44297 0.63961,-0.0932 2.04223,-0.18214 3.11692,-0.19774 l 1.95398,-0.0284 0.17509,1.02166 c 0.0963,0.56191 0.28117,1.12773 0.41082,1.25738 0.38356,0.38356 0.27199,0.9876 -0.31087,1.68304 -0.40211,0.47978 -0.51803,0.84432 -0.43858,1.37917 0.0862,0.58043 0.0142,0.7568 -0.35724,0.87468 -0.77423,0.24573 -1.65684,1.05776 -1.65684,1.52434 0,0.24165 -0.25955,0.60942 -0.57678,0.81728 -0.44169,0.28941 -0.57595,0.57434 -0.57325,1.21656 0.005,1.13836 0.22542,1.40813 1.28405,1.57009 1.40712,0.21528 2.77132,1.19105 3.07944,2.20262 0.25181,0.82669 0.69889,1.16745 2.17452,1.6574 0.30068,0.0998 0.37751,0.26132 0.25872,0.5438 -0.4455,1.05942 -0.4087,1.44 0.13925,1.44 0.29335,0 0.80087,-0.25628 1.12781,-0.56951 l 0.59444,-0.56951 1.14852,0.67324 c 0.63169,0.37029 1.18195,0.67848 1.2228,0.68487 0.0409,0.006 0.52924,-0.25501 1.08532,-0.58089 z"
       id="arequipa"
       inkscape:label="#path3894"
       inkscape:connector-curvature="0" />
    <path
       style="fill:#00ffff;stroke-width:0.23071167"
       d="m 113.45522,253.84694 c 0,-0.68807 -0.11112,-1.05616 -0.34606,-1.14632 -0.20021,-0.0768 -0.34607,-0.42182 -0.34607,-0.81855 0,-0.37717 -0.10382,-0.74993 -0.23071,-0.82835 -0.12689,-0.0784 -0.23071,-0.54704 -0.23071,-1.04136 0,-0.84276 -0.0498,-0.90813 -0.79927,-1.04873 -1.25553,-0.23554 -1.47331,-0.67122 -0.86437,-1.72928 0.28054,-0.48745 0.51008,-1.20313 0.51008,-1.59039 0,-0.58169 -0.0926,-0.7041 -0.53268,-0.7041 -0.29298,0 -0.73011,-0.14436 -0.9714,-0.32079 -0.38076,-0.27843 -0.40141,-0.40266 -0.15632,-0.94058 0.22955,-0.50381 0.21705,-0.81223 -0.0668,-1.64832 -0.43391,-1.27806 -0.44363,-2.23476 -0.0309,-3.04259 0.32541,-0.63695 0.18355,-1.4664 -0.30213,-1.76657 -0.13939,-0.0862 -0.24688,-0.89613 -0.24688,-1.86031 0,-1.45968 0.0733,-1.77607 0.50493,-2.17815 0.63137,-0.58822 1.02636,-0.59645 1.33073,-0.0277 0.1303,0.24347 0.54206,0.50969 0.91502,0.59161 0.37296,0.0819 0.79628,0.29132 0.94071,0.46535 0.36479,0.43955 1.51402,0.6562 2.00961,0.37885 0.35277,-0.19741 0.25192,-0.29944 -0.6988,-0.70696 -0.98586,-0.42259 -1.10281,-0.54792 -1.0379,-1.11228 0.052,-0.45232 0.28575,-0.73597 0.80924,-0.98209 0.57268,-0.26924 0.70956,-0.45498 0.61658,-0.83673 -0.1356,-0.5568 0.42064,-1.02602 2.3964,-2.02146 1.0861,-0.54721 1.57069,-1.0639 0.9978,-1.0639 -0.21992,0 -2.32439,-3.3242 -2.32439,-3.67158 0,-0.107 -0.30801,-0.32212 -0.68447,-0.47806 -0.72298,-0.29947 -0.80643,-0.46017 -1.04896,-2.01993 -0.13541,-0.87085 -0.25788,-1.02587 -1.11273,-1.40845 -1.33233,-0.59628 -1.87821,-1.24428 -1.55575,-1.8468 0.34377,-0.64235 0.36333,-0.61662 -0.73143,-0.96184 -1.33525,-0.42106 -1.5573,-0.62846 -1.5573,-1.45458 0,-0.48876 -0.23407,-0.95274 -0.74981,-1.48628 -0.70006,-0.72422 -0.7213,-0.79175 -0.32004,-1.01754 0.23638,-0.13302 0.63948,-0.45155 0.89578,-0.70785 0.41672,-0.41671 0.6732,-0.45307 2.42509,-0.34377 1.39536,0.087 2.18107,0.0295 2.73052,-0.20011 0.42429,-0.17727 1.34578,-0.32232 2.04776,-0.32232 1.21423,0 1.27632,-0.0286 1.27632,-0.58824 0,-0.32353 0.16108,-0.89973 0.35796,-1.28044 0.19687,-0.38072 0.29201,-0.89996 0.21142,-1.15387 -0.0806,-0.25392 -0.1638,-1.20116 -0.18492,-2.10498 -0.038,-1.62578 -0.0313,-1.64521 0.62217,-1.82095 0.36331,-0.0977 1.2223,-0.0648 1.90887,0.073 0.68657,0.13789 1.29366,0.20535 1.34909,0.14992 0.12157,-0.12158 0.16592,-2.67512 0.0715,-4.11794 -0.0642,-0.98055 -0.0235,-1.0604 0.73297,-1.4379 0.44049,-0.21984 0.87838,-0.60916 0.97309,-0.86517 0.12039,-0.32546 0.38088,-0.46547 0.86599,-0.46547 0.64771,0 0.68461,-0.0459 0.55549,-0.69156 -0.0761,-0.38036 -0.0313,-0.8216 0.0995,-0.98053 0.13081,-0.15892 0.30906,-0.76749 0.39611,-1.35235 0.14192,-0.95353 0.1084,-1.07644 -0.32447,-1.18964 -0.60574,-0.15841 -0.66596,-1.42018 -0.10595,-2.21971 0.31205,-0.44551 0.51591,-0.51538 1.18628,-0.4066 0.70552,0.11449 0.94279,0.014 1.84744,-0.78229 0.57088,-0.50251 1.13927,-0.91365 1.26309,-0.91365 0.12382,0 0.17561,-0.25903 0.11509,-0.57562 -0.0718,-0.37532 0.0795,-0.83246 0.43453,-1.31374 0.57476,-0.77904 0.71909,-1.99663 0.28781,-2.42792 -0.3782,-0.37819 -0.0367,-0.75838 0.68121,-0.75838 0.47775,0 0.687,-0.15646 0.87486,-0.65418 0.47541,-1.2595 2.73965,-2.54467 4.52023,-2.56565 0.72302,-0.008 0.91505,0.0978 1.21123,0.67055 0.1936,0.37437 0.352,0.8957 0.352,1.1585 0,0.70813 0.94706,1.07087 1.83529,0.70296 0.57453,-0.23798 0.70253,-0.42462 0.70253,-1.02436 0,-0.90065 0.35668,-1.28707 1.18801,-1.28707 0.64047,0 2.03866,-1.20948 2.04089,-1.76544 0.002,-0.39863 1.38877,-0.82603 1.73861,-0.53569 0.20248,0.16804 0.32407,0.13462 0.42003,-0.11545 0.0743,-0.19358 0.39565,-0.35196 0.71414,-0.35196 0.5321,0 0.55801,-0.0462 0.31938,-0.56994 -0.19328,-0.42422 -0.19222,-0.65123 0.004,-0.88783 0.20433,-0.2462 0.15996,-0.41187 -0.19679,-0.73473 -0.25333,-0.22926 -0.4606,-0.55244 -0.4606,-0.71816 0,-0.16573 -0.21581,-0.50238 -0.47957,-0.74811 -0.46277,-0.43114 -0.46584,-0.47387 -0.0875,-1.22022 0.21562,-0.4254 0.54474,-0.94784 0.73137,-1.16098 0.30651,-0.35005 0.24845,-0.44491 -0.60024,-0.98067 -0.52386,-0.3307 -1.00176,-0.84087 -1.08011,-1.15307 -0.2548,-1.01518 -0.79194,-0.9209 -1.98335,0.34811 -0.88116,0.93856 -1.1148,1.3518 -1.1148,1.97181 0,0.43142 -0.12302,0.98139 -0.27338,1.22215 -0.20619,0.33017 -0.20979,0.65544 -0.0147,1.32346 0.1423,0.48714 0.19987,1.17871 0.12795,1.53681 -0.0719,0.35811 0.004,0.90216 0.16779,1.209 0.25428,0.47511 0.24162,0.62082 -0.0853,0.98204 -0.21113,0.23329 -0.38386,0.70483 -0.38386,1.04788 0,0.43585 -0.15637,0.68185 -0.5191,0.81669 -0.74299,0.27618 -1.02953,0.0976 -1.47937,-0.92197 -0.25081,-0.56848 -0.55131,-0.90084 -0.81447,-0.90084 -0.22936,0 -0.63672,-0.2197 -0.90523,-0.48821 -0.38574,-0.38574 -0.46298,-0.67629 -0.36802,-1.38427 0.0799,-0.59584 0.0309,-0.89267 -0.14625,-0.88593 -1.96242,0.0746 -3.7312,0.47131 -4.51097,1.01169 -0.77564,0.53752 -0.95735,0.57831 -1.49164,0.33488 -0.46222,-0.21061 -0.74809,-0.21356 -1.18981,-0.0123 -0.99745,0.45446 -1.20475,1.68316 -0.6558,3.88701 0.2211,0.88762 -2.76078,3.67655 -4.36008,4.07795 -0.47223,0.11852 -0.61845,0.31355 -0.67504,0.90037 l -0.0722,0.74907 -1.53443,0.0677 c -1.25363,0.0553 -1.64633,0.17141 -2.14597,0.63445 -0.33635,0.31172 -0.74208,0.56676 -0.90162,0.56676 -0.15955,0 -0.48146,0.13994 -0.71536,0.31097 -0.39993,0.29244 -0.3682,0.36802 0.53269,1.26891 0.52687,0.52687 0.95795,1.14249 0.95795,1.36804 0,0.54828 -0.63983,1.4356 -1.03518,1.4356 -0.24873,0 -0.26967,0.16126 -0.0973,0.74982 0.19796,0.67609 0.15065,0.81219 -0.48116,1.38427 -0.41941,0.37974 -0.96463,0.63445 -1.3581,0.63445 -0.36156,0 -0.90498,0.18169 -1.2076,0.40375 -1.03224,0.75745 -2.00497,1.21124 -2.59642,1.21124 -0.34369,0 -0.68858,0.18282 -0.8247,0.43715 -0.30838,0.57622 -1.41986,0.94539 -2.87363,0.95445 -0.6668,0.004 -1.3709,0.15414 -1.62465,0.34607 -0.57394,0.4341 -1.14916,0.43131 -1.51321,-0.007 -0.15797,-0.19033 -0.36611,-0.34606 -0.46254,-0.34606 -0.0964,0 -0.45232,0.86989 -0.79086,1.9331 -0.3931,1.23451 -0.89338,2.25769 -1.38436,2.83129 -0.42285,0.49401 -0.80927,1.10355 -0.85871,1.35454 -0.0824,0.41805 -0.28251,0.45635 -2.384783,0.45635 -2.21563,0 -2.3048,0.0199 -2.5819,0.57518 -0.15785,0.31635 -0.35662,1.28163 -0.4417,2.14507 l -0.15469,1.5699 -1.70375,0.93507 c -0.93707,0.51429 -1.814,1.14106 -1.94873,1.39281 -0.13474,0.25176 -0.62594,0.61502 -1.09157,0.80725 -0.46563,0.19223 -1.02682,0.50967 -1.24709,0.70542 -0.36426,0.32371 -0.48266,0.30152 -1.30899,-0.24532 -0.499669,-0.33067 -1.245253,-1.02026 -1.656845,-1.53244 -0.411592,-0.51217 -0.834796,-0.93122 -0.940448,-0.93122 -0.105654,0 -0.1921,0.45978 -0.1921,1.02173 0,0.56194 -0.129775,1.15891 -0.288389,1.32659 -0.314008,0.33195 -0.376162,2.74303 -0.09222,3.5776 0.136263,0.40052 0.02657,0.61138 -0.533449,1.02542 -0.609856,0.45089 -0.685959,0.62262 -0.563998,1.27274 0.101213,0.53951 0.01562,0.93364 -0.303381,1.39706 -0.346688,0.50363 -0.454426,1.10196 -0.490131,2.72194 -0.02517,1.14202 -0.102371,2.25809 -0.171557,2.48015 -0.08297,0.26629 -0.0027,0.40374 0.235822,0.40374 0.19889,0 0.361615,0.15573 0.361615,0.34607 0,0.20029 0.208914,0.34607 0.495952,0.34607 0.294632,0 0.950193,0.47376 1.614981,1.16713 0.878991,0.91676 1.11903,1.33136 1.11903,1.93279 0,0.42112 0.155731,0.89492 0.346068,1.05289 0.506647,0.42048 0.423852,1.00005 -0.230712,1.61498 -0.621731,0.58409 -0.759708,1.15356 -0.279493,1.15356 0.163508,0 0.704559,-0.20764 1.20234,-0.46142 0.925235,-0.47172 1.537185,-0.57768 1.802705,-0.31216 0.33524,0.33526 2.64334,0.98973 3.51519,0.99676 0.51391,0.004 1.05565,0.1288 1.20387,0.27702 0.14883,0.14883 1.11679,0.29944 2.16192,0.33638 2.837533,0.1003 3.083093,0.19277 3.793123,1.42837 0.34146,0.5942 0.82954,1.3108 1.08464,1.59243 0.39561,0.43677 0.44298,0.71128 0.32218,1.86707 -0.13374,1.27956 -0.10347,1.39404 0.54362,2.0559 0.55306,0.56568 0.70681,0.95426 0.79701,2.01429 0.0615,0.72236 0.16181,1.39438 0.22299,1.49336 0.0612,0.099 -0.0123,0.50725 -0.1633,0.90725 -0.24835,0.65798 -0.22017,0.78115 0.29567,1.2923 0.3136,0.31075 1.13758,0.86667 1.83104,1.23537 1.02424,0.54457 1.29681,0.81713 1.45245,1.45238 0.19368,0.79053 0.5581,1.18324 2.17648,2.34546 0.49062,0.35233 1.14699,1.05312 1.45859,1.5573 0.43923,0.7107 0.70985,0.9167 1.20422,0.9167 0.59965,0 0.63767,-0.0604 0.63767,-1.01352 z"
       id="condesuyos"
       inkscape:label="#path3892"
       inkscape:connector-curvature="0" />
    <path
       style="fill:#00ffff;stroke-width:0.23071167"
       d="m 123.87267,253.45723 c 0.35677,-0.19093 0.43148,-0.38923 0.3176,-0.84296 -0.19407,-0.77323 0.26218,-1.84438 1.1072,-2.59941 0.37122,-0.33168 0.70038,-0.85655 0.73148,-1.16637 0.0311,-0.30982 0.0698,-0.62738 0.086,-0.70569 0.0162,-0.0783 0.47068,-0.43279 1.00997,-0.78774 0.53929,-0.35496 1.78541,-1.43053 2.76917,-2.39017 1.65749,-1.61687 1.77847,-1.79898 1.65002,-2.4837 -0.0904,-0.48191 0.0297,-1.18886 0.34544,-2.03266 0.26966,-0.72073 0.48406,-1.83946 0.48406,-2.52578 0,-1.46732 0.25633,-1.74287 1.57251,-1.69038 0.80639,0.0322 1.09464,-0.0824 1.67981,-0.66756 0.68263,-0.68263 0.6974,-0.74052 0.43942,-1.72185 -0.14684,-0.5585 -0.49174,-1.19066 -0.76647,-1.40478 -0.43429,-0.3385 -0.46649,-0.47675 -0.2467,-1.05906 0.2192,-0.58071 0.18399,-0.73597 -0.26488,-1.16798 -0.28472,-0.27404 -0.68988,-0.49825 -0.90036,-0.49825 -0.596,0 -1.7044,0.64839 -1.97603,1.15594 -0.66687,1.24606 -2.78247,1.51181 -3.13142,0.39335 -0.19327,-0.61947 -0.51036,-0.84895 -1.17953,-0.85362 -0.71404,-0.005 -0.8658,-0.38972 -0.42132,-1.06807 0.35403,-0.54032 0.35432,-0.62489 0.004,-1.15961 -0.34051,-0.51968 -0.34313,-0.62988 -0.0264,-1.1132 0.32482,-0.49574 0.31728,-0.54538 -0.0994,-0.65435 -0.68174,-0.17828 -0.54311,-0.72816 0.35658,-1.41439 0.44412,-0.33875 0.80749,-0.76931 0.80749,-0.95681 0,-1.50991 3.61644,-5.83005 5.31647,-6.35097 0.57445,-0.17602 0.95181,-0.50118 1.26892,-1.09342 0.42827,-0.79986 0.53379,-0.85474 2.0663,-1.07456 2.34035,-0.33569 3.52589,-0.93424 3.79729,-1.91715 0.11992,-0.43432 0.39484,-0.98503 0.61092,-1.22381 0.21609,-0.23877 0.28727,-0.43413 0.15819,-0.43413 -0.36841,0 -0.5684,-2.41186 -0.26176,-3.15676 0.25788,-0.62645 0.40735,-1.45806 0.84386,-4.69491 0.11179,-0.8289 0.32972,-1.74341 0.4843,-2.03226 0.1578,-0.29483 0.21683,-0.81761 0.13461,-1.19197 -0.11463,-0.52187 -0.0427,-0.7316 0.3307,-0.96482 0.32294,-0.20167 0.47717,-0.53963 0.47717,-1.04559 0,-0.60572 0.10984,-0.77517 0.57879,-0.89287 0.35312,-0.0886 0.63332,-0.36257 0.71867,-0.70261 0.0769,-0.30654 0.34181,-0.66542 0.5886,-0.7975 0.30787,-0.16477 0.42627,-0.43278 0.3772,-0.8539 -0.0619,-0.53144 -0.21075,-0.63726 -1.1097,-0.7889 -1.31912,-0.22251 -2.30712,-0.62783 -2.30712,-0.94646 0,-0.13628 0.28045,-0.54051 0.62323,-0.89829 0.61666,-0.64366 0.61831,-0.65394 0.15661,-0.97733 -0.25664,-0.17975 -0.5968,-0.76135 -0.75592,-1.29244 -0.27362,-0.91326 -0.25742,-0.9989 0.29866,-1.57933 0.49223,-0.51377 0.56496,-0.75546 0.44668,-1.48434 -0.13188,-0.81264 -0.0693,-0.9377 0.93946,-1.87709 0.63296,-0.58943 0.97926,-1.06916 0.83581,-1.15782 -0.13472,-0.0833 -0.19218,-0.23674 -0.1277,-0.34108 0.18007,-0.29136 -0.75652,-2.24948 -1.14777,-2.39962 -0.19042,-0.0731 -0.34622,-0.34375 -0.34622,-0.60152 0,-0.62988 -0.31734,-0.5922 -0.67732,0.0804 -0.1979,0.36977 -0.6062,0.61465 -1.25022,0.74981 -0.83687,0.17564 -0.96598,0.28719 -1.03334,0.89285 -0.14818,1.3323 -1.31485,1.94317 -2.74923,1.43951 -0.66225,-0.23254 -0.74982,-0.36235 -0.74982,-1.11154 0,-1.12075 -0.43806,-1.45482 -1.71843,-1.3105 -1.40995,0.15892 -3.04334,1.2295 -3.52303,2.30912 -0.27479,0.61845 -0.52816,0.86517 -0.88846,0.86517 -0.45481,0 -0.4943,0.0958 -0.40438,0.98053 0.0753,0.74125 -0.0265,1.17757 -0.41747,1.78801 -0.28442,0.44412 -0.49246,1.02474 -0.46232,1.29025 0.0364,0.3207 -0.22198,0.69388 -0.76972,1.11166 -0.45349,0.3459 -1.08024,0.90467 -1.39276,1.24172 -0.50899,0.54892 -0.63935,0.58596 -1.25049,0.35528 -0.56859,-0.21462 -0.74209,-0.1914 -1.04145,0.13939 -0.53422,0.5903 -0.46331,1.54846 0.12598,1.70256 0.4443,0.11619 0.47123,0.23027 0.31951,1.3535 -0.0911,0.67464 -0.26689,1.41892 -0.39058,1.65395 -0.12368,0.23504 -0.17074,0.63437 -0.10457,0.88742 0.1922,0.73496 -0.0775,1.10772 -0.80136,1.10772 -0.50576,0 -0.7277,0.14344 -0.89246,0.57678 -0.12784,0.33625 -0.40231,0.57678 -0.65817,0.57678 -0.74014,0 -1.01981,0.56755 -0.82032,1.66468 0.22196,1.22063 0.1269,3.68091 -0.15351,3.97304 -0.12855,0.13393 -0.75726,0.10668 -1.65471,-0.0717 -2.11952,-0.4213 -2.23761,-0.3283 -2.11043,1.66184 0.0582,0.91 0.11658,1.86218 0.12982,2.11597 0.0132,0.25378 -0.091,0.77288 -0.23162,1.15355 -0.14064,0.38068 -0.31255,0.97764 -0.38203,1.3266 -0.12101,0.60778 -0.18463,0.63445 -1.5136,0.63445 -0.76301,0 -1.73803,0.14655 -2.16672,0.32567 -0.55729,0.23285 -1.31095,0.28924 -2.64436,0.19784 -1.76284,-0.12083 -1.89634,-0.0964 -2.43861,0.44585 l -0.57367,0.57368 0.57226,0.53761 c 0.409,0.38424 0.57226,0.78087 0.57226,1.39026 0,0.81314 0.0479,0.86606 1.03382,1.1421 1.27762,0.35771 1.62738,0.72389 1.29128,1.3519 -0.20478,0.38263 -0.12914,0.5546 0.46312,1.05295 0.38932,0.32759 0.83953,0.59563 1.00047,0.59563 0.52581,0 1.0121,0.78619 1.1773,1.90333 0.12835,0.86796 0.2866,1.15583 0.76095,1.38427 0.36047,0.1736 0.98402,0.97378 1.56626,2.00993 0.53204,0.94682 1.18513,1.89785 1.45131,2.11338 0.76965,0.62323 0.58243,1.06804 -0.72728,1.7279 -1.85596,0.93509 -2.55932,1.48703 -2.26721,1.77915 0.40645,0.40644 0.29411,0.59251 -0.61668,1.02137 -1.13596,0.53488 -1.16012,1.18664 -0.0577,1.55585 0.61689,0.2066 0.82472,0.41567 0.88049,0.88575 0.0695,0.58582 0.0235,0.61533 -0.95923,0.61533 -1.06156,0 -3.23949,-0.92818 -3.76072,-1.60272 -0.22097,-0.28598 -0.32321,-0.29129 -0.63445,-0.033 -0.48852,0.40543 -0.52311,3.15907 -0.0464,3.69394 0.46554,0.52235 0.51878,1.17794 0.16482,2.02952 -0.34234,0.82359 -0.25465,2.09274 0.224,3.24224 0.25475,0.61178 0.25916,0.84296 0.0233,1.22062 -0.38161,0.61104 -0.22091,0.82413 0.76032,1.00821 0.77778,0.14592 0.81004,0.19165 0.81004,1.1486 0,0.67439 -0.16244,1.20315 -0.5024,1.63534 -0.48723,0.61941 -0.48938,0.64822 -0.0713,0.95396 0.23713,0.17339 0.72276,0.31526 1.07918,0.31526 0.61296,0 0.64804,0.0555 0.64804,1.02458 0,0.56352 0.10382,1.08875 0.23071,1.16718 0.12689,0.0784 0.23071,0.44031 0.23071,0.80421 0,0.50458 0.16427,0.74356 0.69209,1.00688 0.67666,0.33756 0.6891,0.33337 0.55834,-0.18765 -0.094,-0.37467 0.0217,-0.67768 0.38961,-1.02049 0.68923,-0.64211 1.09121,-0.61574 1.35921,0.0892 0.30563,0.80387 1.05319,0.74796 1.4979,-0.11201 0.35005,-0.67691 1.24815,-1.10992 1.71002,-0.82446 0.12919,0.0798 0.30237,0.5049 0.38486,0.94457 0.0825,0.43967 0.28143,0.79939 0.44211,0.79939 0.16067,0 0.42138,0.15573 0.57935,0.34607 0.15796,0.19034 0.58921,0.34607 0.95833,0.34607 0.38373,0 0.728,0.1482 0.80393,0.34607 0.15658,0.40803 0.62396,0.44343 1.27241,0.0964 z"
       id="castilla"
       inkscape:label="#path3890"
       inkscape:connector-curvature="0" />
    <path
       style="fill:#00ffff;stroke-width:0.23071167"
       d="m 82.770576,250.84515 c 0,-0.42415 0.700861,-0.99778 1.446428,-1.18386 0.613396,-0.15309 0.633175,-0.2029 0.494789,-1.2461 -0.156491,-1.17969 0.226312,-1.86035 1.046264,-1.86035 0.681192,0 0.929069,-0.50128 0.715695,-1.44736 -0.199256,-0.88347 -0.01172,-3.29917 0.294598,-3.7948 0.113893,-0.18429 -0.02909,-0.33234 -0.414316,-0.42903 -0.602449,-0.1512 -0.699917,-0.37177 -0.909272,-2.05765 -0.225922,-1.81929 -0.632337,-3.93848 -0.932493,-4.86235 -0.316511,-0.97421 -0.140621,-1.71293 0.407852,-1.71293 0.177861,0 0.254586,-0.27509 0.209134,-0.74982 -0.391322,-4.087 -0.453194,-4.4116 -0.911653,-4.78284 -0.432624,-0.35032 -0.453953,-0.52805 -0.285349,-2.37787 0.100224,-1.09959 0.128371,-2.20519 0.06255,-2.45689 -0.06582,-0.2517 0.09028,-0.79919 0.346886,-1.21664 0.281965,-0.45871 0.45566,-1.11796 0.43901,-1.66623 -0.01516,-0.49896 0.08266,-0.94394 0.21736,-0.98884 0.811326,-0.27044 1.017958,-0.64387 0.762216,-1.37749 -0.178218,-0.51124 -0.182721,-0.86607 -0.01497,-1.17951 0.159108,-0.2973 0.165425,-0.70808 0.01876,-1.21948 -0.174866,-0.60972 -0.149114,-0.81149 0.123009,-0.96378 0.189298,-0.10593 0.344177,-0.47364 0.344177,-0.81713 0,-0.34348 0.09979,-0.97245 0.221749,-1.3977 0.202959,-0.70768 0.153659,-0.84439 -0.581866,-1.61346 -0.448508,-0.46897 -0.913969,-1.26781 -1.053356,-1.8078 -0.205705,-0.79692 -0.357361,-0.97999 -0.860081,-1.0382 -0.523398,-0.0606 -0.620541,-0.19392 -0.681947,-0.93584 -0.03938,-0.47585 -0.169158,-0.86517 -0.28839,-0.86517 -0.119229,0 -0.216783,0.0927 -0.216783,0.20603 0,0.40447 -0.766339,0.49055 -1.293305,0.14527 -0.294884,-0.19322 -1.032954,-0.35272 -1.640153,-0.35445 -1.593929,-0.005 -1.964948,-0.157 -2.548065,-1.04701 -0.578645,-0.88318 -1.396082,-1.05835 -1.93068,-0.41373 -0.47136,0.56837 -1.673931,1.00203 -2.789378,1.00587 -0.543365,0.002 -1.247485,0.15349 -1.564714,0.33693 -0.317229,0.18344 -0.83633,0.45152 -1.153558,0.59573 -0.317229,0.14421 -0.898158,0.41558 -1.290957,0.60305 -0.462099,0.22055 -0.999242,0.28738 -1.521808,0.18934 -0.808629,-0.1517 -1.377199,0.14836 -1.635151,0.86293 -0.07092,0.19646 -0.347636,0.0654 -0.842667,-0.39908 -0.405391,-0.38037 -1.11984,-0.79847 -1.587666,-0.92912 -0.662154,-0.18491 -0.978372,-0.46877 -1.427371,-1.28133 -1.245792,-2.25451 -1.537908,-2.52199 -2.726571,-2.49669 -2.220293,0.0473 -2.223152,0.0505 -2.256113,2.51545 l -0.02906,2.17315 -1.201606,1.10488 c -0.660878,0.60768 -1.389288,1.10488 -1.618685,1.10488 -0.503992,0 -0.786433,0.33406 -1.119295,1.32388 -0.349064,1.038 -1.617185,2.82893 -2.003105,2.82893 -0.175747,0 -0.706804,0.4726 -1.180127,1.05023 -1.082871,1.3215 -1.552736,1.58699 -2.197734,1.2418 -0.435328,-0.23298 -0.470193,-0.38094 -0.314513,-1.33471 0.0963,-0.58997 0.201372,-1.64369 0.233494,-2.34159 0.05491,-1.1931 0.105543,-1.29192 0.847394,-1.65381 1.309589,-0.63885 1.397215,-0.85645 1.067081,-2.64983 -0.22075,-1.19916 -0.459227,-1.75906 -0.990344,-2.32512 l -0.699577,-0.74561 -1.499626,0.6722 c -1.826597,0.81876 -2.731928,1.79288 -2.586594,2.78312 0.175553,1.19611 -0.198474,1.38122 -2.790831,1.38122 -2.066192,0 -2.380437,-0.0552 -2.855648,-0.50164 -0.293684,-0.2759 -0.53397,-0.75241 -0.53397,-1.0589 0,-0.30649 -0.219308,-0.73484 -0.487351,-0.95189 -0.460491,-0.37289 -0.471711,-0.46995 -0.20361,-1.7614 0.156058,-0.75172 0.328683,-1.48389 0.383616,-1.62703 0.104625,-0.27265 -2.619309,-1.31844 -4.110673,-1.57819 -1.387156,-0.2416 -1.833601,-1.3691 -0.733822,-1.85326 0.466236,-0.20525 0.754219,-1.04275 0.783974,-2.2799 0.0056,-0.23247 0.102549,-0.66567 0.215462,-0.96265 0.145711,-0.38324 0.112786,-0.61674 -0.113436,-0.80449 -0.175304,-0.14549 -0.381849,-0.55189 -0.458992,-0.90311 -0.138838,-0.63213 -0.158234,-0.63842 -1.918199,-0.62217 -1.511563,0.014 -1.982914,-0.0835 -3.145989,-0.65075 -1.078748,-0.52608 -1.641451,-0.6573 -2.660975,-0.62051 -1.119581,0.0404 -1.366878,-0.0321 -1.844458,-0.54042 -0.664018,-0.70681 -1.180319,-0.74409 -1.740008,-0.12564 -0.326806,0.36111 -0.710584,0.46142 -1.76543,0.46142 -1.219939,0 -1.433873,-0.0777 -2.25434,-0.81896 l -0.906493,-0.81896 -1.574322,0.82056 c -0.865877,0.4513 -1.730053,0.91588 -1.92039,1.03239 -0.190337,0.1165 -0.842568,0.33786 -1.449402,0.49189 -0.855877,0.21725 -1.3381383,0.54122 -2.1502443,1.44448 -1.70627,1.89778 -2.699855,3.53565 -2.537429,4.18281 0.102862,0.40983 -0.06138,0.84793 -0.610153,1.62754 -1.415604,2.01106 -1.781485,2.75982 -1.785308,3.65357 -0.0052,1.20607 -0.74837,2.22738 -1.620871,2.22738 -0.364545,0 -0.729784,0.10837 -0.811643,0.24082 -0.31543,0.51037 0.399984,0.85415 2.018544,0.96996 1.109924,0.0794 1.695534,0.22282 1.765369,0.43233 0.256752,0.77026 1.353109,1.50506 2.68226,1.79771 1.485444,0.32706 3.3457933,1.14256 3.4663123,1.51948 0.04057,0.12689 0.138471,0.62004 0.217553,1.09588 l 0.143785,0.86517 h 1.207126 c 0.663918,0 1.411911,0.14278 1.662205,0.31729 0.250294,0.17451 1.306782,0.59931 2.347751,0.94399 1.040968,0.34469 2.011738,0.77017 2.157265,0.94552 0.145527,0.17535 0.630932,0.38754 1.078677,0.47154 0.487569,0.0915 0.855728,0.31197 0.917915,0.54978 0.05711,0.21838 0.433035,0.50651 0.835394,0.64029 0.40236,0.13378 1.302574,0.46838 2.000477,0.74355 0.697903,0.27517 1.811504,0.6336 2.474671,0.79651 1.596582,0.3922 2.831697,1.33461 2.831697,2.1606 0,1.623 0.729277,2.83827 2.307117,3.84459 1.138875,0.72635 2.049247,0.88973 5.075656,0.91088 l 2.653184,0.0186 0.06893,0.82032 c 0.0639,0.76045 0.145212,0.84073 1.113915,1.09982 0.574742,0.15372 1.420017,0.53433 1.878388,0.84581 0.458373,0.31147 1.670145,0.83538 2.692827,1.16424 1.022682,0.32886 2.326614,0.82495 2.897625,1.10241 l 1.038203,0.50448 0.115356,1.61498 0.115356,1.61498 1.076839,0.56878 c 0.682106,0.36029 1.208251,0.84435 1.435329,1.32054 0.224649,0.47109 0.57629,0.79708 0.941885,0.87316 0.320871,0.0668 0.862815,0.18029 1.204322,0.25225 0.341506,0.0719 1.101221,0.53296 1.688255,1.02445 1.357277,1.13637 5.147309,3.33076 6.303629,3.64972 1.003833,0.2769 1.999931,1.2256 1.999931,1.90476 0,0.65 0.656926,0.81701 1.441823,0.36654 0.901218,-0.51723 2.180991,-0.4861 4.672036,0.11364 1.851456,0.44575 2.184959,0.60943 3.078429,1.51084 0.949455,0.9579 1.053224,1.00325 1.977963,0.86458 0.760795,-0.11409 1.288557,-0.0148 2.394021,0.45051 0.779946,0.32828 1.614575,0.59686 1.854732,0.59686 0.815903,0 2.20476,1.34666 2.526362,2.4496 0.268876,0.92211 0.742278,1.21322 0.742278,0.45644 z"
       id="caraveli" 
       inkscape:label="#path3888"
       inkscape:connector-curvature="0" />
    <path
       style="fill:#00ffff;stroke-width:0.23071167"
       d="m 146.13538,240.13336 c 0.50865,-0.40477 0.76972,-0.84792 0.87038,-1.47743 0.20764,-1.29852 1.09304,-2.0051 2.52419,-2.0144 1.07566,-0.007 1.18267,-0.0699 2.59551,-1.52506 1.35253,-1.39307 1.47359,-1.60021 1.47359,-2.52134 0,-1.55698 0.89414,-2.16167 2.02507,-1.36953 0.35394,0.24791 0.51276,0.59525 0.51276,1.12142 0,0.74728 0.0238,0.76513 1.21124,0.90776 0.66618,0.08 1.55381,0.14639 1.9725,0.14749 0.86164,0.002 2.12263,-0.56962 2.12263,-0.96267 0,-0.14337 0.2646,-0.60759 0.588,-1.03159 0.57955,-0.75983 0.61517,-0.77119 2.48015,-0.79083 5.45935,-0.0575 5.92465,0.0194 6.94643,1.14849 0.24143,0.26678 0.64964,0.48505 0.90714,0.48505 0.81123,0 2.32551,0.90324 2.81269,1.67771 l 0.46848,0.74476 2.1847,-0.0711 c 1.33006,-0.0433 2.72621,-0.24385 3.56897,-0.51273 0.76135,-0.24292 2.88966,-0.70294 4.72959,-1.02228 4.2631,-0.7399 4.87526,-0.9194 5.53675,-1.62352 0.2982,-0.31743 0.78038,-0.57713 1.07151,-0.57713 0.77293,0 0.43884,-0.64636 -0.45363,-0.87762 -0.58554,-0.15173 -0.74963,-0.34046 -0.89207,-1.02601 -0.1562,-0.75182 -1.36235,-3.28456 -2.09849,-4.40655 -0.24097,-0.36728 -0.18426,-0.49641 0.4053,-0.92285 0.37701,-0.2727 0.99712,-0.79648 1.37802,-1.16396 l 0.69255,-0.66814 -0.51285,-0.34052 c -0.44682,-0.29667 -0.51286,-0.54371 -0.51286,-1.91838 0,-1.32606 -0.0806,-1.65292 -0.50493,-2.04826 -0.27771,-0.25873 -0.59486,-0.47041 -0.70479,-0.47041 -0.10993,0 -0.8236,-0.42357 -1.58594,-0.94127 l -1.38608,-0.94127 0.39273,-0.59937 c 0.37856,-0.57776 0.37379,-0.61472 -0.13234,-1.02455 -0.49038,-0.3971 -0.50001,-0.45285 -0.1458,-0.84425 0.26159,-0.28906 0.33572,-0.63679 0.23891,-1.12081 -0.0823,-0.41156 -0.0353,-0.76664 0.11361,-0.85869 0.37698,-0.23298 0.31508,-1.28328 -0.0756,-1.28328 -0.95674,0 -1.50851,-2.3354 -0.70862,-2.99925 0.47754,-0.39632 0.43293,-1.08571 -0.11535,-1.78274 -0.25379,-0.32263 -0.46143,-0.86857 -0.46143,-1.2132 0,-0.34462 -0.11397,-0.95354 -0.25328,-1.35316 -0.24343,-0.69832 -0.30396,-0.72677 -1.5573,-0.73206 -1.82722,-0.008 -3.09202,-0.34502 -3.48184,-0.92857 -1.04259,-1.5607 -1.56507,-4.95395 -1.0125,-6.57567 0.42298,-1.24138 0.28312,-1.48874 -1.29407,-2.28856 -0.57898,-0.29362 -1.25047,-0.75271 -1.4922,-1.02021 -0.67328,-0.74506 -1.17291,-0.59024 -2.05429,0.63657 -1.01267,1.40957 -1.76346,1.65207 -2.80977,0.90756 -2.29969,-1.63637 -3.81907,-2.9058 -4.82336,-4.02989 -0.96709,-1.08244 -1.21548,-1.24351 -1.73034,-1.12202 -0.33064,0.078 -0.77413,0.34579 -0.98553,0.59506 -0.36411,0.42932 -0.3489,0.48869 0.28839,1.12598 0.79585,0.79585 0.82461,1.01782 0.21133,1.63109 -0.3247,0.32471 -0.76904,0.46143 -1.49962,0.46143 -0.92014,0 -1.03925,0.059 -1.04737,0.5191 -0.005,0.2855 -0.47008,1.01992 -1.03344,1.63204 -1.24385,1.35152 -1.62796,1.30668 -2.80165,-0.32701 -0.87082,-1.21211 -1.05418,-1.29524 -3.19245,-1.44728 -0.76135,-0.0541 -2.2927,-0.22913 -3.403,-0.38887 -1.57536,-0.22666 -2.01795,-0.37124 -2.01519,-0.65832 0.005,-0.51572 0.19879,-0.73996 1.3764,-1.59226 0.56863,-0.41154 1.42514,-0.81083 1.90337,-0.8873 0.47823,-0.0765 0.86951,-0.165 0.86951,-0.19673 0,-0.0317 -0.14225,-0.40779 -0.3161,-0.83568 -0.33384,-0.82166 -0.28199,-1.243 0.22493,-1.82783 0.26764,-0.30876 0.15715,-0.50602 -0.80764,-1.44195 -1.16012,-1.1254 -1.5743,-1.28466 -2.06978,-0.79585 -0.23453,0.23136 -0.38431,0.16294 -0.75752,-0.34607 -0.25586,-0.34895 -0.65219,-0.63446 -0.88075,-0.63446 -0.34299,0 -0.41556,-0.19486 -0.41556,-1.11582 0,-1.76986 -0.25214,-2.54727 -0.94187,-2.90394 -0.5286,-0.27335 -0.68381,-0.27333 -1.05779,1.4e-4 -0.35245,0.25772 -0.39236,0.42291 -0.20377,0.84346 0.3202,0.71406 0.14108,1.09976 -0.51076,1.09976 -0.30035,0 -0.64502,0.17678 -0.76593,0.39284 -0.18236,0.32585 -0.2808,0.34227 -0.57718,0.0963 -0.19652,-0.1631 -0.56619,-0.23026 -0.82147,-0.14923 -0.37967,0.1205 -0.43948,0.28142 -0.32863,0.88422 0.0745,0.40531 0.26229,0.84074 0.41722,0.96763 0.37966,0.31095 1.26934,2.3525 1.09928,2.52255 -0.0745,0.0745 0.0546,0.27431 0.28675,0.44409 0.43509,0.31814 0.31488,0.8401 -0.19348,0.8401 -0.15796,0 -0.63715,0.36107 -1.06487,0.80236 -0.72828,0.7514 -0.76187,0.85386 -0.52885,1.61313 0.23173,0.75504 0.20203,0.85014 -0.4321,1.38373 -0.65255,0.54908 -0.66957,0.61088 -0.40838,1.48265 0.16303,0.54415 0.44556,0.95492 0.7031,1.02227 0.61508,0.16085 0.5319,0.95915 -0.14624,1.40348 -0.31722,0.20786 -0.57677,0.46919 -0.57677,0.58075 0,0.27106 1.29407,0.70938 2.09435,0.70938 0.91511,0 1.44152,0.60453 1.2706,1.45915 -0.0761,0.38032 -0.3381,0.83143 -0.58229,1.00247 -0.24419,0.17104 -0.47704,0.54366 -0.51745,0.82805 -0.0471,0.33159 -0.25967,0.54352 -0.59255,0.5908 -0.41444,0.0589 -0.51911,0.22212 -0.51911,0.80967 0,0.48787 -0.15667,0.8338 -0.46479,1.02622 -0.3342,0.20871 -0.42672,0.44199 -0.32929,0.83022 0.0745,0.29697 -0.0278,0.93075 -0.22733,1.40838 -0.19957,0.47764 -0.36286,1.35409 -0.36286,1.94768 0,0.59358 -0.12079,1.20003 -0.26843,1.34767 -0.14764,0.14765 -0.2505,0.74271 -0.22857,1.32238 0.0224,0.59179 -0.12232,1.36755 -0.32999,1.76914 -0.3801,0.73505 -0.2919,2.55514 0.14988,3.09263 0.12247,0.149 0.0455,0.46819 -0.19463,0.80733 -0.21844,0.30849 -0.50099,0.8721 -0.62788,1.25246 -0.30432,0.91221 -2.16087,1.94906 -3.50334,1.95655 -1.30176,0.007 -2.1158,0.34919 -2.35991,0.99126 -0.24254,0.63791 -0.63045,0.97349 -1.39829,1.20964 -1.02925,0.31654 -3.43645,2.6867 -4.28056,4.21468 -0.44054,0.79744 -0.80098,1.61574 -0.80098,1.81845 0,0.20271 -0.37076,0.71824 -0.82391,1.14562 -0.71526,0.67457 -0.7609,0.77705 -0.34607,0.77705 0.58428,0 0.63148,0.60139 0.0938,1.19549 -0.35977,0.39754 -0.35335,0.45698 0.10182,0.94148 0.47681,0.50753 0.47784,0.52775 0.0556,1.08751 l -0.43022,0.57037 0.72944,0.23666 c 0.42608,0.13824 0.85573,0.50051 1.03312,0.87112 0.44585,0.93145 1.43254,0.86936 2.28044,-0.14351 1.19581,-1.42846 3.04344,-1.9865 3.53515,-1.06773 0.13582,0.25378 0.39902,0.46142 0.58489,0.46142 0.40016,0 0.42039,0.21458 0.0997,1.05799 -0.19408,0.51048 -0.1577,0.71635 0.1963,1.1109 0.23898,0.26636 0.56713,0.97674 0.7292,1.57861 0.24527,0.91085 0.24137,1.15985 -0.0233,1.48515 -0.27343,0.33612 -0.26949,0.37306 0.0281,0.26393 1.20402,-0.44148 1.37485,-0.43697 1.77933,0.0469 0.22684,0.27137 0.79374,0.64857 1.2598,0.83821 1.05903,0.43092 1.18249,0.74802 0.75881,1.94886 -0.18549,0.52576 -0.33693,0.96883 -0.33653,0.98459 4.6e-4,0.0158 0.40365,0.0333 0.89611,0.039 0.66993,0.008 1.10781,0.19682 1.73903,0.75104 0.75809,0.66561 0.94212,0.72507 1.81474,0.58641 0.53411,-0.0849 1.29807,-0.41451 1.6977,-0.73253 z"
       id="caylloma"
       inkscape:label="#path3886"
       inkscape:connector-curvature="0" />
    <path
       style="fill:#00ffff;stroke-width:0.23071167"
       d="m 91.013237,213.10165 c 0.32263,-0.25378 0.7208,-0.46143 0.88481,-0.46143 0.16402,0 0.51363,-0.27385 0.77692,-0.60857 0.26328,-0.33472 1.23116,-1.0355 2.15083,-1.5573 l 1.67212,-0.94873 0.15107,-1.6921 c 0.11369,-1.27331 0.27377,-1.82269 0.6468,-2.21977 0.46364,-0.49352 0.62933,-0.52005 2.55979,-0.40999 1.959613,0.11174 2.064063,0.094 2.064063,-0.35105 0,-0.25781 0.1513,-0.5268 0.33622,-0.59776 0.53494,-0.20527 1.38246,-1.74179 1.95591,-3.54597 0.29099,-0.91552 0.66459,-1.8499 0.83022,-2.0764 0.28441,-0.38896 0.33475,-0.38026 0.90628,0.15666 0.5488,0.51556 0.65258,0.53789 1.11448,0.23982 0.28013,-0.18077 1.28024,-0.39518 2.22246,-0.47647 1.48435,-0.12806 1.77821,-0.22941 2.20043,-0.75892 0.2958,-0.37097 0.71618,-0.61113 1.06975,-0.61113 0.52799,0 1.3548,-0.35544 2.97624,-1.27948 0.31723,-0.18078 0.76212,-0.33023 0.98864,-0.3321 0.22652,-0.002 0.65721,-0.16415 0.95707,-0.36064 0.45771,-0.29989 0.52651,-0.49671 0.42866,-1.22622 -0.1003,-0.74776 -0.0327,-0.92397 0.48487,-1.26307 0.8177,-0.53577 0.75937,-0.91453 -0.32141,-2.08705 -0.50757,-0.55064 -0.92285,-1.12101 -0.92285,-1.26749 0,-0.14647 0.38933,-0.44403 0.86517,-0.66124 0.47584,-0.21721 1.15864,-0.63081 1.51733,-0.91911 0.51169,-0.41129 0.94336,-0.5242 2.00411,-0.5242 h 1.35195 l 0.0723,-0.74981 c 0.0635,-0.6585 0.18125,-0.77672 0.96695,-0.97074 0.60754,-0.15003 1.41072,-0.70533 2.50272,-1.73034 l 1.60806,-1.50941 -0.29135,-1.40279 -0.29135,-1.4028 -1.74994,-0.28756 c -0.96247,-0.15815 -1.90568,-0.30747 -2.09601,-0.33182 -0.2326,-0.0298 -0.3221,-0.24817 -0.27296,-0.66617 0.0613,-0.5216 -0.0317,-0.64322 -0.57678,-0.75404 -1.6625,-0.33799 -1.80053,-0.4347 -1.874,-1.313 -0.0388,-0.46387 -0.2205,-0.96784 -0.40375,-1.11993 -0.47349,-0.39295 -0.41249,-0.99958 0.15186,-1.51031 0.26677,-0.24142 0.62937,-0.71806 0.80578,-1.05919 0.47174,-0.91225 -0.0473,-1.3419 -1.62117,-1.3419 -2.2784,0 -3.37909,0.24813 -3.59269,0.80993 -0.27024,0.71081 -0.9511,0.93135 -1.31957,0.42744 -0.16196,-0.2215 -0.29448,-0.49496 -0.29448,-0.60769 0,-0.11274 -1.06415,-0.17588 -2.36479,-0.14032 l -2.3648,0.0647 -0.23071,-0.70144 c -0.22621,-0.68774 -0.24646,-0.69581 -1.0382,-0.41353 -0.44412,0.15835 -1.1841,0.23428 -1.6444,0.16875 -0.7843,-0.11167 -0.88262,-0.0527 -1.56426,0.93802 -0.40005,0.58145 -1.03793,1.74939 -1.41752,2.59542 l -0.69017,1.53825 -1.88784,-0.1294 -1.887843,-0.1294 -0.93339,0.96194 c -0.51336,0.52907 -1.12364,1.06611 -1.35617,1.19343 -0.25287,0.13845 -0.44359,0.53194 -0.47455,0.97907 -0.0285,0.41117 -0.30839,1.03374 -0.62206,1.3835 -1.53091,1.70701 -1.52223,1.45338 -0.10167,2.96762 0.70125,0.7475 1.27405,1.46304 1.27289,1.59009 -0.001,0.12705 -0.2488,0.74043 -0.5503,1.36305 -0.42955,0.88702 -0.50486,1.28314 -0.34798,1.83017 0.29857,1.04102 -6.9e-4,2.36874 -0.74516,3.30546 -0.36386,0.45786 -0.66157,1.05966 -0.66157,1.33732 0,0.64444 -0.80079,1.37531 -1.88815,1.72328 -0.46747,0.1496 -1.22017,0.68179 -1.67266,1.18264 -0.69786,0.77246 -0.82322,1.07684 -0.82611,2.00586 -0.004,1.41421 -0.4101,2.19163 -1.29414,2.47982 -0.389806,0.12707 -0.883436,0.37603 -1.09696,0.55324 -0.337787,0.28033 -0.544652,0.24416 -1.592365,-0.27849 -1.47054,-0.73356 -2.52749,-0.61352 -3.114372,0.35371 -0.327414,0.53961 -0.341158,0.775 -0.09826,1.68315 0.20035,0.74908 0.212389,1.1866 0.04144,1.50602 -0.166405,0.31093 -0.167058,0.58826 -0.0021,0.89646 0.131355,0.24544 0.238828,0.71263 0.238828,1.0382 0,0.41622 0.123285,0.59195 0.415281,0.59195 0.554739,0 0.968989,0.44398 0.968989,1.03853 0,0.77397 4.572119,6.34424 5.207399,6.34424 0.0778,0 0.40552,-0.20764 0.72815,-0.46142 z"
       id="union"
       inkscape:label="#path3882"
       inkscape:connector-curvature="0" />
  </g>
</svg>
